G04 Layer_Color=8388736*
%FSLAX25Y25*%
%MOIN*%
G70*
G01*
G75*
%ADD48R,0.05524X0.06312*%
%ADD49R,0.06312X0.06706*%
%ADD50R,0.06000X0.03000*%
G04:AMPARAMS|DCode=51|XSize=68.5mil|YSize=26.77mil|CornerRadius=4.92mil|HoleSize=0mil|Usage=FLASHONLY|Rotation=180.000|XOffset=0mil|YOffset=0mil|HoleType=Round|Shape=RoundedRectangle|*
%AMROUNDEDRECTD51*
21,1,0.06850,0.01693,0,0,180.0*
21,1,0.05866,0.02677,0,0,180.0*
1,1,0.00984,-0.02933,0.00846*
1,1,0.00984,0.02933,0.00846*
1,1,0.00984,0.02933,-0.00846*
1,1,0.00984,-0.02933,-0.00846*
%
%ADD51ROUNDEDRECTD51*%
G04:AMPARAMS|DCode=52|XSize=68.5mil|YSize=26.77mil|CornerRadius=4.92mil|HoleSize=0mil|Usage=FLASHONLY|Rotation=90.000|XOffset=0mil|YOffset=0mil|HoleType=Round|Shape=RoundedRectangle|*
%AMROUNDEDRECTD52*
21,1,0.06850,0.01693,0,0,90.0*
21,1,0.05866,0.02677,0,0,90.0*
1,1,0.00984,0.00846,0.02933*
1,1,0.00984,0.00846,-0.02933*
1,1,0.00984,-0.00846,-0.02933*
1,1,0.00984,-0.00846,0.02933*
%
%ADD52ROUNDEDRECTD52*%
%ADD53R,0.04737X0.03162*%
%ADD54R,0.04737X0.03556*%
%ADD55R,0.05328X0.03162*%
%ADD56R,0.02178X0.04737*%
%ADD57O,0.02008X0.04567*%
%ADD58R,0.05800X0.04400*%
%ADD59R,0.04400X0.04400*%
G04:AMPARAMS|DCode=60|XSize=35.56mil|YSize=67.06mil|CornerRadius=0mil|HoleSize=0mil|Usage=FLASHONLY|Rotation=55.000|XOffset=0mil|YOffset=0mil|HoleType=Round|Shape=Rectangle|*
%AMROTATEDRECTD60*
4,1,4,0.01727,-0.03379,-0.03766,0.00467,-0.01727,0.03379,0.03766,-0.00467,0.01727,-0.03379,0.0*
%
%ADD60ROTATEDRECTD60*%

G04:AMPARAMS|DCode=61|XSize=31.62mil|YSize=67.06mil|CornerRadius=0mil|HoleSize=0mil|Usage=FLASHONLY|Rotation=55.000|XOffset=0mil|YOffset=0mil|HoleType=Round|Shape=Rectangle|*
%AMROTATEDRECTD61*
4,1,4,0.01839,-0.03218,-0.03653,0.00628,-0.01839,0.03218,0.03653,-0.00628,0.01839,-0.03218,0.0*
%
%ADD61ROTATEDRECTD61*%

G04:AMPARAMS|DCode=62|XSize=39.5mil|YSize=67.06mil|CornerRadius=0mil|HoleSize=0mil|Usage=FLASHONLY|Rotation=55.000|XOffset=0mil|YOffset=0mil|HoleType=Round|Shape=Rectangle|*
%AMROTATEDRECTD62*
4,1,4,0.01614,-0.03541,-0.03879,0.00305,-0.01614,0.03541,0.03879,-0.00305,0.01614,-0.03541,0.0*
%
%ADD62ROTATEDRECTD62*%

%ADD63R,0.09300X0.11599*%
%ADD64R,0.03950X0.09461*%
%ADD65R,0.06706X0.06312*%
G04:AMPARAMS|DCode=66|XSize=56.82mil|YSize=29.65mil|CornerRadius=5.52mil|HoleSize=0mil|Usage=FLASHONLY|Rotation=270.000|XOffset=0mil|YOffset=0mil|HoleType=Round|Shape=RoundedRectangle|*
%AMROUNDEDRECTD66*
21,1,0.05682,0.01862,0,0,270.0*
21,1,0.04579,0.02965,0,0,270.0*
1,1,0.01103,-0.00931,-0.02289*
1,1,0.01103,-0.00931,0.02289*
1,1,0.01103,0.00931,0.02289*
1,1,0.01103,0.00931,-0.02289*
%
%ADD66ROUNDEDRECTD66*%
%ADD67R,0.03162X0.05328*%
%ADD68R,0.05300X0.10800*%
%ADD69R,0.10800X0.06300*%
%ADD70C,0.07800*%
%ADD71R,0.07800X0.07800*%
%ADD72R,0.07800X0.07800*%
%ADD73C,0.06800*%
%ADD74R,0.06800X0.06800*%
%ADD75C,0.05800*%
D48*
X167087Y104000D02*
D03*
X160000D02*
D03*
Y122500D02*
D03*
X167087D02*
D03*
X107543Y151500D02*
D03*
X100457D02*
D03*
X53000Y177500D02*
D03*
X60087D02*
D03*
X17413Y149000D02*
D03*
X24500D02*
D03*
X53000Y168000D02*
D03*
X60087D02*
D03*
X17500Y158000D02*
D03*
X24587D02*
D03*
X27543Y128500D02*
D03*
X20457D02*
D03*
X67043Y78500D02*
D03*
X59957D02*
D03*
X67087Y69000D02*
D03*
X60000D02*
D03*
X99087Y39500D02*
D03*
X92000D02*
D03*
X127057Y11900D02*
D03*
X134143D02*
D03*
X127013Y41900D02*
D03*
X134100D02*
D03*
X167043Y131000D02*
D03*
X159957D02*
D03*
X130500Y104500D02*
D03*
X123413D02*
D03*
D49*
X160000Y113000D02*
D03*
X167874D02*
D03*
X125126Y132000D02*
D03*
X133000D02*
D03*
X75626Y144500D02*
D03*
X83500D02*
D03*
X34126Y159000D02*
D03*
X42000D02*
D03*
X75500Y155500D02*
D03*
X83374D02*
D03*
X34000Y148500D02*
D03*
X41874D02*
D03*
X109374Y140000D02*
D03*
X101500D02*
D03*
X20126Y119000D02*
D03*
X28000D02*
D03*
X99000Y29500D02*
D03*
X91126D02*
D03*
X160000Y84500D02*
D03*
X167874D02*
D03*
X160000Y74000D02*
D03*
X167874D02*
D03*
X126163Y21400D02*
D03*
X134037D02*
D03*
X126100Y31900D02*
D03*
X133974D02*
D03*
X188126Y51000D02*
D03*
X196000D02*
D03*
X188063Y40500D02*
D03*
X195937D02*
D03*
X167874Y95000D02*
D03*
X160000D02*
D03*
D50*
X160500Y147100D02*
D03*
Y139900D02*
D03*
X168500Y143500D02*
D03*
D51*
X112957Y102524D02*
D03*
Y99374D02*
D03*
Y96224D02*
D03*
Y93075D02*
D03*
Y89925D02*
D03*
Y86776D02*
D03*
Y83626D02*
D03*
Y80476D02*
D03*
X80043D02*
D03*
Y83626D02*
D03*
Y86776D02*
D03*
Y89925D02*
D03*
Y93075D02*
D03*
Y96224D02*
D03*
Y99374D02*
D03*
Y102524D02*
D03*
D52*
X107524Y75043D02*
D03*
X104374D02*
D03*
X101224D02*
D03*
X98075D02*
D03*
X94925D02*
D03*
X91776D02*
D03*
X88626D02*
D03*
X85476D02*
D03*
Y107957D02*
D03*
X88626D02*
D03*
X91776D02*
D03*
X94925D02*
D03*
X98075D02*
D03*
X101224D02*
D03*
X104374D02*
D03*
X107524D02*
D03*
D53*
X125276Y117500D02*
D03*
Y113760D02*
D03*
Y121240D02*
D03*
D54*
X134724D02*
D03*
Y113760D02*
D03*
D55*
X58929Y124500D02*
D03*
X50071Y120760D02*
D03*
Y128240D02*
D03*
X123500Y97500D02*
D03*
D56*
X22882Y64000D02*
D03*
D57*
X25441D02*
D03*
X28000D02*
D03*
X30559D02*
D03*
X33118D02*
D03*
X35677D02*
D03*
X38236D02*
D03*
X40795D02*
D03*
X22882Y86835D02*
D03*
X25441D02*
D03*
X28000D02*
D03*
X30559D02*
D03*
X33118D02*
D03*
X35677D02*
D03*
X38236D02*
D03*
X40795D02*
D03*
D58*
X150000Y142000D02*
D03*
D59*
X142000Y138300D02*
D03*
X142000Y145800D02*
D03*
D60*
X31467Y169600D02*
D03*
X34857Y193660D02*
D03*
D61*
X33726Y172825D02*
D03*
X35984Y176050D02*
D03*
X38242Y179275D02*
D03*
X40500Y182500D02*
D03*
X25824Y180760D02*
D03*
X28083Y183985D02*
D03*
X30341Y187210D02*
D03*
X32599Y190435D02*
D03*
D62*
X43887Y187338D02*
D03*
X22437Y175923D02*
D03*
D63*
X210402Y150500D02*
D03*
X193000D02*
D03*
D64*
X173437Y23500D02*
D03*
X165563D02*
D03*
D65*
X201000Y179126D02*
D03*
Y187000D02*
D03*
D66*
X172740Y50665D02*
D03*
X169000D02*
D03*
X165260D02*
D03*
Y41335D02*
D03*
X172740D02*
D03*
D67*
X105500Y118000D02*
D03*
X101000D02*
D03*
X72500Y118400D02*
D03*
X85500Y118000D02*
D03*
X98000Y66000D02*
D03*
D68*
X131000Y228500D02*
D03*
X123200D02*
D03*
Y167100D02*
D03*
X131000D02*
D03*
X138900D02*
D03*
X146700D02*
D03*
X154700D02*
D03*
X162500D02*
D03*
X178200D02*
D03*
X170300D02*
D03*
X139000Y228500D02*
D03*
X146800D02*
D03*
X154700D02*
D03*
X162600Y228600D02*
D03*
X170400D02*
D03*
X178300D02*
D03*
D69*
X186400Y178100D02*
D03*
Y185900D02*
D03*
Y193700D02*
D03*
Y201700D02*
D03*
Y209500D02*
D03*
Y217500D02*
D03*
D70*
X113500Y56000D02*
D03*
X133500Y56000D02*
D03*
X123500Y56000D02*
D03*
X46000Y99000D02*
D03*
X53500Y53500D02*
D03*
X78900Y171000D02*
D03*
X78900Y181000D02*
D03*
X78900Y201000D02*
D03*
X78900Y191000D02*
D03*
D71*
X143500Y56000D02*
D03*
X36000Y99000D02*
D03*
X43500Y53500D02*
D03*
D72*
X78900Y211000D02*
D03*
D73*
X196500Y73224D02*
D03*
D74*
Y118500D02*
D03*
D75*
X18100Y72000D02*
D03*
X154700Y178100D02*
D03*
X187500Y162400D02*
D03*
X132600Y86600D02*
D03*
X132400Y78400D02*
D03*
X126600Y82300D02*
D03*
X56600Y95000D02*
D03*
X78800Y43000D02*
D03*
X45400Y166300D02*
D03*
X42000Y172000D02*
D03*
X51500Y150000D02*
D03*
X96000Y146000D02*
D03*
X51500Y161000D02*
D03*
X167000Y60500D02*
D03*
X110700Y36500D02*
D03*
X147500Y99500D02*
D03*
X79500Y136500D02*
D03*
X38000Y205000D02*
D03*
X45000Y115000D02*
D03*
X36000Y119000D02*
D03*
X48000Y64500D02*
D03*
X87000Y131500D02*
D03*
X116000Y111000D02*
D03*
X67000Y60000D02*
D03*
X63500Y89000D02*
D03*
X45500Y81500D02*
D03*
X16500Y86500D02*
D03*
X153000Y104000D02*
D03*
X150000Y125500D02*
D03*
X133500Y140000D02*
D03*
X184000Y150500D02*
D03*
X140500Y130000D02*
D03*
X106000Y44500D02*
D03*
X112500Y159500D02*
D03*
X42000Y136500D02*
D03*
X150000Y65500D02*
D03*
X76500Y73500D02*
D03*
X103500Y126500D02*
D03*
X96000Y17500D02*
D03*
X123000Y73500D02*
D03*
X201000Y195500D02*
D03*
X170400Y216100D02*
D03*
X126600Y90900D02*
D03*
X158500Y152000D02*
D03*
X174100Y157700D02*
D03*
X112100Y237500D02*
D03*
M02*
