G04 Layer_Color=16711935*
%FSLAX25Y25*%
%MOIN*%
G70*
G01*
G75*
%ADD34C,0.00500*%
D34*
X24961Y51635D02*
X25088Y51425D01*
X19584Y190778D02*
X25908Y199700D01*
Y50300D02*
X30463Y44613D01*
X35265Y39290D01*
X95640Y4432D01*
X102606Y2943D01*
X109763Y1845D01*
X116972Y1166D01*
X124208Y908D01*
X131446Y1073D01*
X138663Y1660D01*
X145833Y2667D01*
X152932Y4090D01*
X159937Y5925D01*
X166822Y8165D01*
X173565Y10803D01*
X180142Y13830D01*
X186532Y17235D01*
X192712Y21007D01*
X198662Y25133D01*
X204361Y29600D01*
X209790Y34390D01*
X214930Y39490D01*
X219764Y44880D01*
X224095Y50317D01*
Y199683D01*
X219764Y205120D02*
X224095Y199683D01*
X214930Y210510D02*
X219764Y205120D01*
X209790Y215610D02*
X214930Y210510D01*
X204361Y220401D02*
X209790Y215610D01*
X198662Y224867D02*
X204361Y220401D01*
X192712Y228993D02*
X198662Y224867D01*
X186532Y232765D02*
X192712Y228993D01*
X180142Y236170D02*
X186532Y232765D01*
X173565Y239197D02*
X180142Y236170D01*
X166822Y241835D02*
X173565Y239197D01*
X159937Y244075D02*
X166822Y241835D01*
X152932Y245910D02*
X159937Y244075D01*
X145833Y247333D02*
X152932Y245910D01*
X138663Y248340D02*
X145833Y247333D01*
X131446Y248927D02*
X138663Y248340D01*
X124208Y249092D02*
X131446Y248927D01*
X116972Y248834D02*
X124208Y249092D01*
X109763Y248155D02*
X116972Y248834D01*
X102606Y247057D02*
X109763Y248155D01*
X95640Y245568D02*
X102606Y247057D01*
X35265Y210711D02*
X95640Y245568D01*
X30463Y205387D02*
X35265Y210711D01*
X25908Y199700D02*
X30463Y205387D01*
X14349Y181177D02*
X19584Y190778D01*
X11243Y174586D02*
X14349Y181177D01*
X8529Y167824D02*
X11243Y174586D01*
X6216Y160915D02*
X8529Y167824D01*
X4313Y153882D02*
X6216Y160915D01*
X2826Y146749D02*
X4313Y153882D01*
X1760Y139541D02*
X2826Y146749D01*
X1120Y132283D02*
X1760Y139541D01*
X906Y125000D02*
X1120Y132283D01*
X906Y125000D02*
X1120Y117717D01*
X1760Y110459D01*
X2826Y103251D01*
X4313Y96118D01*
X6216Y89085D01*
X8529Y82176D01*
X11243Y75414D01*
X14349Y68823D01*
X17837Y62426D01*
X21694Y56244D01*
X24961Y51635D01*
X25088Y51425D02*
X25165Y51348D01*
X25908Y50300D01*
M02*
