M48
;Layer_Color=9474304
;FILE_FORMAT=2:5
INCH,TZ
;TYPE=PLATED
T1F00S00C0.02800
T2F00S00C0.03150
T3F00S00C0.03200
T4F00S00C0.04000
%
T01
X18100Y72000
X16500Y86500
X45500Y81500
X48000Y64500
X67000Y60000
X76500Y73500
X63500Y89000
X56600Y95000
X45000Y115000
X36000Y119000
X42000Y136500
X79500
X87000Y131500
X103500Y126500
X96000Y146000
X133500Y140000
X140500Y130000
X116000Y111000
X126600Y90900
Y82300
X132400Y78400
X132600Y86600
X123000Y73500
X106000Y44500
X110700Y36500
X96000Y17500
X78800Y43000
X150000Y65500
X167000Y60500
X153000Y104000
X147500Y99500
X150000Y125500
X158500Y152000
X174100Y157700
X184000Y150500
X187500Y162400
X201000Y195500
X170400Y216100
X154700Y178100
X112500Y159500
X51500Y161000
Y150000
X45400Y166300
X42000Y172000
X38000Y205000
X112100Y237500
T02
X196500Y73224
T03
X196500Y118500
T04
X43500Y53500
X53500Y53500
X46000Y99000
X36000Y99000
X113500Y56000
X123500Y56000
X133500Y56000
X143500Y56000
X78900Y171000
X78900Y181000
X78900Y191000
X78900Y201000
X78900Y211000
M30
