G04 Layer_Color=32768*
%FSLAX25Y25*%
%MOIN*%
G70*
G01*
G75*
%ADD77C,0.00394*%
%ADD79C,0.00197*%
D77*
X163543Y102032D02*
Y105968D01*
X161575Y104000D02*
X165512D01*
X156653Y100260D02*
X170433D01*
X156653Y107740D02*
X170433D01*
Y100260D02*
Y107740D01*
X156653Y100260D02*
Y107740D01*
X163543Y120531D02*
Y124469D01*
X161575Y122500D02*
X165512D01*
X156653Y126240D02*
X170433D01*
X156653Y118760D02*
X170433D01*
X156653D02*
Y126240D01*
X170433Y118760D02*
Y126240D01*
X163937Y111031D02*
Y114969D01*
X161969Y113000D02*
X165905D01*
X155276Y117921D02*
X172598D01*
X155276Y108079D02*
X172598D01*
X155276D02*
Y117921D01*
X172598Y108079D02*
Y117921D01*
X104000Y149531D02*
Y153469D01*
X102032Y151500D02*
X105968D01*
X97110Y147760D02*
X110890D01*
X97110Y155240D02*
X110890D01*
Y147760D02*
Y155240D01*
X97110Y147760D02*
Y155240D01*
X54500Y122531D02*
Y126469D01*
X52531Y124500D02*
X56468D01*
X46823Y117610D02*
X62177D01*
X46823Y131390D02*
X62177D01*
Y117610D02*
Y131390D01*
X46823Y117610D02*
Y131390D01*
X129063Y130032D02*
Y133968D01*
X127094Y132000D02*
X131032D01*
X120402Y136921D02*
X137724D01*
X120402Y127079D02*
X137724D01*
X120402D02*
Y136921D01*
X137724Y127079D02*
Y136921D01*
X79563Y142532D02*
Y146468D01*
X77595Y144500D02*
X81532D01*
X70902Y149421D02*
X88224D01*
X70902Y139579D02*
X88224D01*
X70902D02*
Y149421D01*
X88224Y139579D02*
Y149421D01*
X38063Y157032D02*
Y160968D01*
X36094Y159000D02*
X40031D01*
X29402Y163921D02*
X46724D01*
X29402Y154079D02*
X46724D01*
X29402D02*
Y163921D01*
X46724Y154079D02*
Y163921D01*
X79437Y153532D02*
Y157468D01*
X77469Y155500D02*
X81406D01*
X70776Y160421D02*
X88098D01*
X70776Y150579D02*
X88098D01*
X70776D02*
Y160421D01*
X88098Y150579D02*
Y160421D01*
X37937Y146531D02*
Y150469D01*
X35969Y148500D02*
X39906D01*
X29276Y153421D02*
X46598D01*
X29276Y143579D02*
X46598D01*
X29276D02*
Y153421D01*
X46598Y143579D02*
Y153421D01*
X56543Y175531D02*
Y179469D01*
X54575Y177500D02*
X58512D01*
X49654Y181240D02*
X63433D01*
X49654Y173760D02*
X63433D01*
X49654D02*
Y181240D01*
X63433Y173760D02*
Y181240D01*
X20957Y147031D02*
Y150969D01*
X18988Y149000D02*
X22925D01*
X14067Y152740D02*
X27847D01*
X14067Y145260D02*
X27847D01*
X14067D02*
Y152740D01*
X27847Y145260D02*
Y152740D01*
X56543Y166032D02*
Y169968D01*
X54575Y168000D02*
X58512D01*
X49654Y171740D02*
X63433D01*
X49654Y164260D02*
X63433D01*
X49654D02*
Y171740D01*
X63433Y164260D02*
Y171740D01*
X21043Y156032D02*
Y159968D01*
X19075Y158000D02*
X23012D01*
X14153Y161740D02*
X27933D01*
X14153Y154260D02*
X27933D01*
X14153D02*
Y161740D01*
X27933Y154260D02*
Y161740D01*
X105437Y138031D02*
Y141969D01*
X103469Y140000D02*
X107405D01*
X96776Y135079D02*
X114098D01*
X96776Y144921D02*
X114098D01*
Y135079D02*
Y144921D01*
X96776Y135079D02*
Y144921D01*
X199031Y183063D02*
X202969D01*
X201000Y181095D02*
Y185031D01*
X196079Y174402D02*
Y191724D01*
X205921Y174402D02*
Y191724D01*
X196079Y174402D02*
X205921D01*
X196079Y191724D02*
X205921D01*
X24000Y126532D02*
Y130468D01*
X22031Y128500D02*
X25969D01*
X17110Y124760D02*
X30890D01*
X17110Y132240D02*
X30890D01*
Y124760D02*
Y132240D01*
X17110Y124760D02*
Y132240D01*
X24063Y117032D02*
Y120968D01*
X22095Y119000D02*
X26032D01*
X15402Y123921D02*
X32724D01*
X15402Y114079D02*
X32724D01*
X15402D02*
Y123921D01*
X32724Y114079D02*
Y123921D01*
X63500Y76531D02*
Y80468D01*
X61532Y78500D02*
X65469D01*
X56610Y74760D02*
X70390D01*
X56610Y82240D02*
X70390D01*
Y74760D02*
Y82240D01*
X56610Y74760D02*
Y82240D01*
X63543Y67032D02*
Y70969D01*
X61575Y69000D02*
X65512D01*
X56653Y65260D02*
X70433D01*
X56653Y72740D02*
X70433D01*
Y65260D02*
Y72740D01*
X56653Y65260D02*
Y72740D01*
X95543Y37532D02*
Y41469D01*
X93575Y39500D02*
X97512D01*
X88653Y35760D02*
X102433D01*
X88653Y43240D02*
X102433D01*
Y35760D02*
Y43240D01*
X88653Y35760D02*
Y43240D01*
X95063Y27531D02*
Y31468D01*
X93094Y29500D02*
X97031D01*
X86402Y24579D02*
X103724D01*
X86402Y34421D02*
X103724D01*
Y24579D02*
Y34421D01*
X86402Y24579D02*
Y34421D01*
X163937Y82531D02*
Y86468D01*
X161969Y84500D02*
X165905D01*
X155276Y89421D02*
X172598D01*
X155276Y79579D02*
X172598D01*
X155276D02*
Y89421D01*
X172598Y79579D02*
Y89421D01*
X163937Y72031D02*
Y75968D01*
X161969Y74000D02*
X165905D01*
X155276Y78921D02*
X172598D01*
X155276Y69079D02*
X172598D01*
X155276D02*
Y78921D01*
X172598Y69079D02*
Y78921D01*
X130100Y19432D02*
Y23369D01*
X128131Y21400D02*
X132069D01*
X121439Y26321D02*
X138761D01*
X121439Y16479D02*
X138761D01*
X121439D02*
Y26321D01*
X138761Y16479D02*
Y26321D01*
X130600Y9932D02*
Y13869D01*
X128631Y11900D02*
X132569D01*
X123710Y15640D02*
X137490D01*
X123710Y8160D02*
X137490D01*
X123710D02*
Y15640D01*
X137490Y8160D02*
Y15640D01*
X130037Y29932D02*
Y33869D01*
X128068Y31900D02*
X132006D01*
X121376Y36821D02*
X138698D01*
X121376Y26979D02*
X138698D01*
X121376D02*
Y36821D01*
X138698Y26979D02*
Y36821D01*
X130557Y39931D02*
Y43868D01*
X128588Y41900D02*
X132525D01*
X123667Y45640D02*
X137446D01*
X123667Y38160D02*
X137446D01*
X123667D02*
Y45640D01*
X137446Y38160D02*
Y45640D01*
X192063Y49031D02*
Y52969D01*
X190094Y51000D02*
X194032D01*
X183402Y55921D02*
X200724D01*
X183402Y46079D02*
X200724D01*
X183402D02*
Y55921D01*
X200724Y46079D02*
Y55921D01*
X192000Y38532D02*
Y42469D01*
X190032Y40500D02*
X193968D01*
X183339Y45421D02*
X200661D01*
X183339Y35579D02*
X200661D01*
X183339D02*
Y45421D01*
X200661Y35579D02*
Y45421D01*
X163937Y93032D02*
Y96969D01*
X161969Y95000D02*
X165905D01*
X155276Y90079D02*
X172598D01*
X155276Y99921D02*
X172598D01*
Y90079D02*
Y99921D01*
X155276Y90079D02*
Y99921D01*
X163500Y129032D02*
Y132968D01*
X161531Y131000D02*
X165469D01*
X156610Y127260D02*
X170390D01*
X156610Y134740D02*
X170390D01*
Y127260D02*
Y134740D01*
X156610Y127260D02*
Y134740D01*
X133846Y100760D02*
Y108240D01*
X120067Y100760D02*
Y108240D01*
Y100760D02*
X133846D01*
X120067Y108240D02*
X133846D01*
X124988Y104500D02*
X128925D01*
X126957Y102532D02*
Y106468D01*
X97008Y198300D02*
Y200300D01*
X96008Y199300D02*
X98008D01*
D79*
X75988Y112012D02*
X117012D01*
X75988Y70988D02*
Y112012D01*
Y70988D02*
X117012D01*
Y112012D01*
X174906Y42063D02*
X175890D01*
X174906Y38126D02*
Y42063D01*
X163094Y38126D02*
X174906D01*
X163094D02*
Y42063D01*
X162110D02*
X163094D01*
X162110D02*
Y49937D01*
X163094D01*
Y53874D01*
X174906D01*
Y49937D02*
Y53874D01*
Y49937D02*
X175890D01*
Y42063D02*
Y49937D01*
M02*
