G04 Layer_Physical_Order=2*
G04 Layer_Color=16711680*
%FSLAX25Y25*%
%MOIN*%
G70*
G01*
G75*
%ADD14C,0.01000*%
%ADD15C,0.02000*%
%ADD16C,0.05905*%
%ADD17R,0.05905X0.05905*%
%ADD18C,0.02500*%
%ADD19R,0.05905X0.02756*%
%ADD20R,0.05905X0.02362*%
%ADD21R,0.05905X0.03150*%
G36*
X5642Y93291D02*
X11263Y92780D01*
X16844Y91931D01*
X22362Y90746D01*
X27799Y89231D01*
X33135Y87389D01*
X38350Y85229D01*
X43425Y82758D01*
X48341Y79985D01*
X53081Y76921D01*
X57628Y73575D01*
X61964Y69962D01*
X66074Y66093D01*
X69943Y61983D01*
X73557Y57647D01*
X76902Y53100D01*
X79966Y48360D01*
X82739Y43444D01*
X85210Y38369D01*
X87370Y33154D01*
X89212Y27818D01*
X90727Y22381D01*
X91912Y16862D01*
X92761Y11282D01*
X93272Y5661D01*
X93441Y77D01*
X93429Y19D01*
X93441Y-39D01*
X93272Y-5623D01*
X92761Y-11244D01*
X91912Y-16825D01*
X90727Y-22343D01*
X89212Y-27781D01*
X87370Y-33116D01*
X85210Y-38331D01*
X82739Y-43406D01*
X79966Y-48322D01*
X76902Y-53063D01*
X73557Y-57609D01*
X69943Y-61945D01*
X66074Y-66055D01*
X61964Y-69924D01*
X57628Y-73538D01*
X53081Y-76883D01*
X48341Y-79948D01*
X43425Y-82720D01*
X38350Y-85191D01*
X33135Y-87352D01*
X27799Y-89193D01*
X22362Y-90709D01*
X16844Y-91893D01*
X11263Y-92742D01*
X5642Y-93253D01*
X58Y-93422D01*
X-0Y-93410D01*
X-58Y-93422D01*
X-5642Y-93253D01*
X-11263Y-92742D01*
X-16844Y-91893D01*
X-22362Y-90709D01*
X-27799Y-89193D01*
X-33135Y-87352D01*
X-38350Y-85191D01*
X-43425Y-82720D01*
X-48341Y-79948D01*
X-53082Y-76883D01*
X-57628Y-73538D01*
X-61964Y-69924D01*
X-66074Y-66055D01*
X-69943Y-61945D01*
X-73557Y-57609D01*
X-76902Y-53063D01*
X-79966Y-48322D01*
X-82739Y-43406D01*
X-85210Y-38331D01*
X-87370Y-33116D01*
X-89212Y-27781D01*
X-90727Y-22343D01*
X-91912Y-16825D01*
X-92761Y-11244D01*
X-93272Y-5623D01*
X-93441Y-39D01*
X-93429Y19D01*
X-93441Y77D01*
X-93272Y5661D01*
X-92761Y11282D01*
X-91912Y16862D01*
X-90727Y22381D01*
X-89212Y27818D01*
X-87370Y33154D01*
X-85210Y38369D01*
X-82739Y43444D01*
X-79966Y48360D01*
X-76902Y53100D01*
X-73557Y57647D01*
X-69943Y61983D01*
X-66074Y66093D01*
X-61964Y69962D01*
X-57628Y73575D01*
X-53082Y76921D01*
X-48341Y79985D01*
X-43425Y82758D01*
X-38350Y85229D01*
X-33135Y87389D01*
X-27799Y89231D01*
X-22362Y90746D01*
X-16844Y91931D01*
X-11263Y92780D01*
X-5642Y93291D01*
X-58Y93460D01*
X-0Y93448D01*
X58Y93460D01*
X5642Y93291D01*
D02*
G37*
%LPC*%
G36*
X34676Y7949D02*
X32724D01*
X32333Y7871D01*
X32003Y7650D01*
X31782Y7319D01*
X31704Y6929D01*
Y6748D01*
X34676D01*
Y7949D01*
D02*
G37*
G36*
X38629D02*
X36676D01*
Y6748D01*
X39649D01*
Y6929D01*
X39571Y7319D01*
X39350Y7650D01*
X39019Y7871D01*
X38629Y7949D01*
D02*
G37*
G36*
Y14044D02*
X32724D01*
X32412Y13982D01*
X32147Y13805D01*
X31970Y13541D01*
X31908Y13228D01*
Y10079D01*
X31970Y9767D01*
X32147Y9502D01*
X32412Y9325D01*
X32724Y9263D01*
X38629D01*
X38941Y9325D01*
X39206Y9502D01*
X39383Y9767D01*
X39445Y10079D01*
Y13228D01*
X39383Y13541D01*
X39206Y13805D01*
X38941Y13982D01*
X38629Y14044D01*
D02*
G37*
G36*
X49653Y-7609D02*
X43747D01*
X43435Y-7672D01*
X43170Y-7848D01*
X42994Y-8113D01*
X42932Y-8425D01*
Y-11575D01*
X42994Y-11887D01*
X43170Y-12152D01*
X43435Y-12328D01*
X43747Y-12391D01*
X49653D01*
X49965Y-12328D01*
X50230Y-12152D01*
X50406Y-11887D01*
X50468Y-11575D01*
Y-8425D01*
X50406Y-8113D01*
X50230Y-7848D01*
X49965Y-7672D01*
X49653Y-7609D01*
D02*
G37*
G36*
X39649Y-7063D02*
X35676D01*
X31704D01*
Y-7244D01*
X31782Y-7634D01*
X32003Y-7965D01*
X32139Y-8056D01*
X31970Y-8310D01*
X31908Y-8622D01*
Y-11378D01*
X31970Y-11690D01*
X32147Y-11955D01*
X32412Y-12132D01*
X32724Y-12194D01*
X38629D01*
X38941Y-12132D01*
X39206Y-11955D01*
X39383Y-11690D01*
X39445Y-11378D01*
Y-8622D01*
X39383Y-8310D01*
X39213Y-8056D01*
X39350Y-7965D01*
X39571Y-7634D01*
X39649Y-7244D01*
Y-7063D01*
D02*
G37*
G36*
X35676Y5748D02*
D01*
Y4748D01*
X31704D01*
Y4567D01*
X31782Y4177D01*
X31897Y4003D01*
X32089Y3670D01*
X31921Y3375D01*
X31387Y3364D01*
X31378Y3378D01*
X30700Y3831D01*
X29900Y3990D01*
X29100Y3831D01*
X28422Y3378D01*
X27969Y2700D01*
X27810Y1900D01*
X27969Y1100D01*
X28422Y422D01*
X29100Y-31D01*
X29900Y-190D01*
X30700Y-31D01*
X31378Y422D01*
X31435Y507D01*
X31935Y494D01*
X31970Y318D01*
X32147Y53D01*
Y-368D01*
X31970Y-633D01*
X31937Y-800D01*
X31374D01*
X30867Y-901D01*
X30437Y-1189D01*
X28563Y-3063D01*
X28275Y-3493D01*
X28174Y-4000D01*
Y-22520D01*
X28022Y-22622D01*
X27569Y-23300D01*
X27410Y-24100D01*
X27569Y-24900D01*
X28022Y-25578D01*
X28700Y-26031D01*
X29500Y-26190D01*
X30300Y-26031D01*
X30978Y-25578D01*
X31431Y-24900D01*
X31590Y-24100D01*
X31431Y-23300D01*
X30978Y-22622D01*
X30825Y-22520D01*
Y-4549D01*
X31260Y-4115D01*
X31550Y-4104D01*
X31843Y-4239D01*
X31868Y-4362D01*
X31782Y-4492D01*
X31704Y-4882D01*
Y-5063D01*
X35676D01*
X39649D01*
Y-4882D01*
X39571Y-4492D01*
X39455Y-4318D01*
X39206Y-3884D01*
X39383Y-3619D01*
X39445Y-3307D01*
Y-945D01*
X39383Y-633D01*
X39206Y-368D01*
Y53D01*
X39383Y318D01*
X39445Y630D01*
Y2992D01*
X39383Y3304D01*
X39206Y3569D01*
X39455Y4003D01*
X39571Y4177D01*
X39649Y4567D01*
Y4748D01*
X35676D01*
Y5748D01*
D02*
G37*
G36*
X9353Y55368D02*
X3447D01*
X3135Y55306D01*
X2871Y55129D01*
X2694Y54865D01*
X2632Y54553D01*
Y48647D01*
X2694Y48335D01*
X2871Y48070D01*
X3135Y47894D01*
X3447Y47832D01*
X9353D01*
X9665Y47894D01*
X9929Y48070D01*
X10106Y48335D01*
X10168Y48647D01*
Y49765D01*
X21440D01*
X52465Y18740D01*
Y10560D01*
X51456Y9552D01*
X50733D01*
X50597Y9723D01*
X50424Y10052D01*
X50468Y10276D01*
Y13032D01*
X50406Y13344D01*
X50230Y13608D01*
X49965Y13785D01*
X49653Y13847D01*
X43747D01*
X43435Y13785D01*
X43170Y13608D01*
X42994Y13344D01*
X42932Y13032D01*
Y10276D01*
X42994Y9963D01*
X42996Y9959D01*
X43130Y9587D01*
X42996Y9214D01*
X42994Y9210D01*
X42932Y8898D01*
Y6535D01*
X42994Y6223D01*
X43170Y5959D01*
Y5537D01*
X42994Y5273D01*
X42932Y4961D01*
Y2598D01*
X42994Y2286D01*
X43170Y2022D01*
Y1600D01*
X42994Y1336D01*
X42932Y1024D01*
Y-1339D01*
X42994Y-1651D01*
X43170Y-1915D01*
Y-2337D01*
X42994Y-2601D01*
X42932Y-2913D01*
Y-5276D01*
X42994Y-5588D01*
X43170Y-5852D01*
X43435Y-6029D01*
X43747Y-6091D01*
X49653D01*
X49965Y-6029D01*
X50230Y-5852D01*
X50406Y-5588D01*
X50440Y-5420D01*
X52245D01*
X56075Y-9249D01*
Y-27751D01*
X49851Y-33974D01*
X-57651D01*
X-67946Y-23680D01*
X-67910Y-23500D01*
X-68069Y-22700D01*
X-68522Y-22022D01*
X-69200Y-21569D01*
X-70000Y-21410D01*
X-70800Y-21569D01*
X-71478Y-22022D01*
X-71931Y-22700D01*
X-72090Y-23500D01*
X-71931Y-24300D01*
X-71478Y-24978D01*
X-70800Y-25431D01*
X-70000Y-25590D01*
X-69820Y-25554D01*
X-59137Y-36237D01*
X-58707Y-36525D01*
X-58200Y-36625D01*
X50400D01*
X50907Y-36525D01*
X51337Y-36237D01*
X58337Y-29237D01*
X58625Y-28807D01*
X58726Y-28300D01*
Y-8700D01*
X58625Y-8193D01*
X58337Y-7763D01*
X53732Y-3157D01*
X53439Y-2962D01*
X53302Y-2870D01*
X53423Y-2395D01*
X53581Y-2427D01*
X53900Y-2490D01*
X54700Y-2331D01*
X55378Y-1878D01*
X55831Y-1200D01*
X55990Y-400D01*
X55831Y400D01*
X55378Y1078D01*
X54863Y1422D01*
X54853Y1448D01*
Y1952D01*
X54863Y1978D01*
X55378Y2322D01*
X55831Y3000D01*
X55990Y3800D01*
X55831Y4600D01*
X55378Y5278D01*
X54700Y5731D01*
X53900Y5890D01*
X53506Y5812D01*
X53311Y6283D01*
X53514Y6419D01*
X55598Y8502D01*
X55996Y9098D01*
X56135Y9800D01*
Y19500D01*
X55996Y20202D01*
X55598Y20798D01*
X23498Y52898D01*
X22902Y53296D01*
X22200Y53435D01*
X10168D01*
Y54553D01*
X10106Y54865D01*
X9929Y55129D01*
X9665Y55306D01*
X9353Y55368D01*
D02*
G37*
G36*
X-4600Y55455D02*
X-4632Y55451D01*
X-5593Y55053D01*
X-6419Y54419D01*
X-7053Y53593D01*
X-7451Y52632D01*
X-7455Y52600D01*
X-4600D01*
Y55455D01*
D02*
G37*
G36*
X-2600Y55455D02*
Y52600D01*
X255D01*
X251Y52632D01*
X-147Y53593D01*
X-781Y54419D01*
X-1607Y55053D01*
X-2568Y55451D01*
X-2600Y55455D01*
D02*
G37*
G36*
X34500Y62090D02*
X33700Y61931D01*
X33557Y61835D01*
X19900D01*
X19198Y61696D01*
X19058Y61602D01*
X18700Y61531D01*
X18022Y61078D01*
X17569Y60400D01*
X17410Y59600D01*
X17569Y58800D01*
X18022Y58122D01*
X18700Y57669D01*
X19500Y57510D01*
X20300Y57669D01*
X20978Y58122D01*
X21007Y58165D01*
X33557D01*
X33700Y58069D01*
X34500Y57910D01*
X35300Y58069D01*
X35978Y58522D01*
X36431Y59200D01*
X36590Y60000D01*
X36431Y60800D01*
X35978Y61478D01*
X35300Y61931D01*
X34500Y62090D01*
D02*
G37*
G36*
X-139Y16663D02*
X-200Y16655D01*
X-260Y16661D01*
X-2616Y16455D01*
X-2674Y16439D01*
X-2735Y16436D01*
X-5034Y15884D01*
X-5090Y15859D01*
X-5149Y15847D01*
X-7342Y14961D01*
X-7393Y14928D01*
X-7450Y14908D01*
X-9487Y13708D01*
X-9533Y13667D01*
X-9587Y13639D01*
X-11424Y12150D01*
X-11463Y12103D01*
X-11512Y12067D01*
X-13109Y10323D01*
X-13140Y10271D01*
X-13184Y10228D01*
X-14505Y8268D01*
X-14529Y8212D01*
X-14565Y8163D01*
X-15582Y6028D01*
X-15597Y5969D01*
X-15626Y5915D01*
X-16316Y3654D01*
X-16322Y3593D01*
X-16342Y3536D01*
X-16691Y1197D01*
X-16688Y1136D01*
X-16699Y1077D01*
X-16698Y-1288D01*
X-16686Y-1348D01*
X-16689Y-1409D01*
X-16337Y-3747D01*
X-16317Y-3804D01*
X-16310Y-3865D01*
X-15617Y-6125D01*
X-15588Y-6179D01*
X-15573Y-6238D01*
X-14553Y-8371D01*
X-14517Y-8420D01*
X-14493Y-8476D01*
X-13169Y-10435D01*
X-13126Y-10478D01*
X-13094Y-10530D01*
X-11495Y-12271D01*
X-11445Y-12307D01*
X-11406Y-12354D01*
X-9567Y-13840D01*
X-9513Y-13868D01*
X-9467Y-13909D01*
X-7429Y-15106D01*
X-7371Y-15126D01*
X-7320Y-15159D01*
X-5127Y-16042D01*
X-5067Y-16054D01*
X-5011Y-16079D01*
X-2711Y-16628D01*
X-2651Y-16630D01*
X-2592Y-16647D01*
X-236Y-16849D01*
X-176Y-16843D01*
X-115Y-16851D01*
X2245Y-16703D01*
X2303Y-16687D01*
X2364Y-16686D01*
X4676Y-16191D01*
X4732Y-16166D01*
X4792Y-16157D01*
X7006Y-15324D01*
X7057Y-15292D01*
X7115Y-15274D01*
X9181Y-14123D01*
X9228Y-14084D01*
X9282Y-14057D01*
X11155Y-12614D01*
X11195Y-12568D01*
X11245Y-12533D01*
X12885Y-10829D01*
X12917Y-10778D01*
X12962Y-10736D01*
X14331Y-8808D01*
X14356Y-8752D01*
X14393Y-8704D01*
X14928Y-7650D01*
X14936Y-7620D01*
X14954Y-7593D01*
X14979Y-7467D01*
X15013Y-7343D01*
X15010Y-7312D01*
X15016Y-7281D01*
Y7119D01*
X15009Y7151D01*
X15013Y7182D01*
X14978Y7305D01*
X14954Y7431D01*
X14936Y7458D01*
X14927Y7489D01*
X14890Y7535D01*
X14381Y8537D01*
X14343Y8585D01*
X14318Y8641D01*
X12946Y10567D01*
X12902Y10608D01*
X12869Y10660D01*
X11228Y12361D01*
X11178Y12396D01*
X11137Y12442D01*
X9262Y13882D01*
X9208Y13909D01*
X9161Y13949D01*
X7094Y15096D01*
X7036Y15115D01*
X6984Y15147D01*
X4769Y15976D01*
X4709Y15985D01*
X4653Y16010D01*
X2341Y16502D01*
X2280Y16502D01*
X2221Y16518D01*
X-139Y16663D01*
D02*
G37*
G36*
X-4600Y50600D02*
X-7455D01*
X-7451Y50568D01*
X-7053Y49607D01*
X-6419Y48781D01*
X-5593Y48147D01*
X-4632Y47749D01*
X-4600Y47745D01*
Y50600D01*
D02*
G37*
G36*
X255D02*
X-2600D01*
Y47745D01*
X-2568Y47749D01*
X-1607Y48147D01*
X-781Y48781D01*
X-147Y49607D01*
X251Y50568D01*
X255Y50600D01*
D02*
G37*
%LPD*%
D14*
X31374Y-2126D02*
X35676D01*
X29500Y-4000D02*
X31374Y-2126D01*
X29500Y-24100D02*
Y-4000D01*
X-58200Y-35300D02*
X50400D01*
X-70000Y-23500D02*
X-58200Y-35300D01*
X50400D02*
X57400Y-28300D01*
X29900Y1900D02*
X35587D01*
X35676Y1811D01*
X46700Y-158D02*
X46942Y-400D01*
X53900D01*
X46700Y-4095D02*
X52794D01*
X57400Y-8700D01*
Y-28300D02*
Y-8700D01*
X46700Y3779D02*
X46720Y3800D01*
D15*
X19900Y60000D02*
X34500D01*
X19500Y59600D02*
X19900Y60000D01*
X22200Y51600D02*
X54300Y19500D01*
X6400Y51600D02*
X22200D01*
X46700Y7717D02*
X52217D01*
X54300Y9800D01*
Y19500D01*
X46720Y3800D02*
X53900D01*
D16*
X-3600Y51600D02*
D03*
D17*
X6400D02*
D03*
D18*
X29500Y-24100D02*
D03*
X34500Y60000D02*
D03*
X29900Y1900D02*
D03*
X19500Y59600D02*
D03*
X53900Y3800D02*
D03*
Y-400D02*
D03*
X-70000Y-23500D02*
D03*
X62300Y-1200D02*
D03*
X55500Y25100D02*
D03*
X65000Y-28300D02*
D03*
X50800Y-56200D02*
D03*
X-27000Y-19800D02*
D03*
X-55800Y-51300D02*
D03*
X-57700Y40000D02*
D03*
X15300Y66400D02*
D03*
X57300Y56100D02*
D03*
X40500Y-22800D02*
D03*
D19*
X46700Y11654D02*
D03*
X35676Y-10000D02*
D03*
D20*
X46700Y7717D02*
D03*
Y3779D02*
D03*
Y-158D02*
D03*
Y-4095D02*
D03*
X35676Y5748D02*
D03*
Y1811D02*
D03*
Y-2126D02*
D03*
Y-6063D02*
D03*
D21*
X46700Y-10000D02*
D03*
X35676Y11654D02*
D03*
M02*
