G04 Layer_Color=8388736*
%FSLAX25Y25*%
%MOIN*%
G70*
G01*
G75*
%ADD25R,0.05800X0.04800*%
%ADD26R,0.05328X0.03162*%
%ADD27R,0.03162X0.05328*%
%ADD28R,0.04800X0.05800*%
%ADD29C,0.06706*%
%ADD30R,0.06706X0.06706*%
%ADD31C,0.03300*%
D25*
X-69900Y-4100D02*
D03*
Y3900D02*
D03*
X69900Y4500D02*
D03*
Y-3500D02*
D03*
D26*
X80071Y3759D02*
D03*
Y-3721D02*
D03*
X88929Y19D02*
D03*
X-80071Y-3721D02*
D03*
Y3759D02*
D03*
X-88929Y19D02*
D03*
D27*
X3740Y-80071D02*
D03*
X-3740D02*
D03*
X-0Y-88929D02*
D03*
X-3740Y80071D02*
D03*
X3740D02*
D03*
X-0Y88929D02*
D03*
D28*
X4200Y-70200D02*
D03*
X-3800D02*
D03*
X-3900Y70300D02*
D03*
X4100D02*
D03*
D29*
X-3600Y51600D02*
D03*
D30*
X6400D02*
D03*
D31*
X29500Y-24100D02*
D03*
X34500Y60000D02*
D03*
X29900Y1900D02*
D03*
X19500Y59600D02*
D03*
X53900Y3800D02*
D03*
Y-400D02*
D03*
X-70000Y-23500D02*
D03*
X62300Y-1200D02*
D03*
X55500Y25100D02*
D03*
X65000Y-28300D02*
D03*
X50800Y-56200D02*
D03*
X-27000Y-19800D02*
D03*
X-55800Y-51300D02*
D03*
X-57700Y40000D02*
D03*
X15300Y66400D02*
D03*
X57300Y56100D02*
D03*
X40500Y-22800D02*
D03*
M02*
