G04 Layer_Color=16711935*
%FSLAX25Y25*%
%MOIN*%
G70*
G01*
G75*
%ADD23C,0.00500*%
%ADD34C,0.00200*%
%ADD35C,0.00394*%
D23*
X0Y-47244D02*
X1003Y-47233D01*
X2005Y-47201D01*
X3007Y-47148D01*
X4007Y-47074D01*
X5005Y-46978D01*
X6001Y-46861D01*
X6994Y-46723D01*
X7984Y-46564D01*
X8971Y-46385D01*
X9953Y-46184D01*
X10931Y-45962D01*
X11904Y-45720D01*
X12872Y-45457D01*
X13834Y-45173D01*
X14790Y-44869D01*
X15739Y-44545D01*
X16681Y-44201D01*
X17615Y-43837D01*
X18542Y-43453D01*
X19460Y-43050D01*
X20369Y-42627D01*
X21270Y-42186D01*
X22160Y-41725D01*
X23041Y-41245D01*
X23911Y-40746D01*
X24770Y-40230D01*
X25619Y-39695D01*
X26456Y-39142D01*
X27280Y-38572D01*
X28093Y-37984D01*
X28893Y-37379D01*
X29680Y-36758D01*
X30453Y-36119D01*
X31213Y-35465D01*
X31959Y-34794D01*
X32690Y-34108D01*
X33407Y-33407D01*
X34108Y-32690D01*
X34794Y-31959D01*
X35465Y-31213D01*
X36119Y-30453D01*
X36758Y-29680D01*
X37379Y-28893D01*
X37984Y-28093D01*
X38572Y-27280D01*
X39142Y-26456D01*
X39695Y-25619D01*
X40230Y-24770D01*
X40746Y-23911D01*
X41245Y-23041D01*
X41725Y-22160D01*
X42186Y-21269D01*
X42627Y-20369D01*
X43050Y-19460D01*
X43453Y-18542D01*
X43837Y-17615D01*
X44201Y-16681D01*
X44545Y-15739D01*
X44869Y-14790D01*
X45173Y-13834D01*
X45457Y-12872D01*
X45720Y-11904D01*
X45962Y-10931D01*
X46184Y-9953D01*
X46385Y-8971D01*
X46564Y-7984D01*
X46723Y-6994D01*
X46861Y-6001D01*
X46978Y-5005D01*
X47074Y-4007D01*
X47148Y-3007D01*
X47201Y-2005D01*
X47233Y-1003D01*
X47244Y0D01*
X-47244D02*
X-47233Y-1003D01*
X-47201Y-2005D01*
X-47148Y-3007D01*
X-47074Y-4007D01*
X-46978Y-5005D01*
X-46861Y-6001D01*
X-46723Y-6994D01*
X-46564Y-7984D01*
X-46385Y-8971D01*
X-46184Y-9953D01*
X-45962Y-10931D01*
X-45720Y-11904D01*
X-45457Y-12872D01*
X-45173Y-13834D01*
X-44869Y-14790D01*
X-44545Y-15739D01*
X-44201Y-16681D01*
X-43837Y-17615D01*
X-43453Y-18542D01*
X-43050Y-19460D01*
X-42627Y-20369D01*
X-42186Y-21270D01*
X-41725Y-22160D01*
X-41245Y-23041D01*
X-40746Y-23911D01*
X-40230Y-24770D01*
X-39695Y-25619D01*
X-39142Y-26456D01*
X-38572Y-27280D01*
X-37984Y-28093D01*
X-37379Y-28893D01*
X-36758Y-29680D01*
X-36119Y-30453D01*
X-35465Y-31213D01*
X-34794Y-31959D01*
X-34108Y-32690D01*
X-33407Y-33407D01*
X-32690Y-34108D01*
X-31959Y-34794D01*
X-31213Y-35465D01*
X-30453Y-36119D01*
X-29680Y-36758D01*
X-28893Y-37379D01*
X-28093Y-37984D01*
X-27280Y-38572D01*
X-26456Y-39142D01*
X-25619Y-39695D01*
X-24770Y-40230D01*
X-23911Y-40746D01*
X-23041Y-41245D01*
X-22160Y-41725D01*
X-21269Y-42186D01*
X-20369Y-42627D01*
X-19460Y-43050D01*
X-18542Y-43453D01*
X-17615Y-43837D01*
X-16681Y-44201D01*
X-15739Y-44545D01*
X-14790Y-44869D01*
X-13834Y-45173D01*
X-12872Y-45457D01*
X-11904Y-45720D01*
X-10931Y-45962D01*
X-9953Y-46184D01*
X-8971Y-46385D01*
X-7984Y-46564D01*
X-6994Y-46723D01*
X-6001Y-46861D01*
X-5005Y-46978D01*
X-4007Y-47074D01*
X-3007Y-47148D01*
X-2005Y-47201D01*
X-1003Y-47233D01*
X0Y-47244D01*
X-0Y47263D02*
X-1003Y47252D01*
X-2005Y47220D01*
X-3007Y47167D01*
X-4007Y47093D01*
X-5005Y46997D01*
X-6001Y46880D01*
X-6994Y46742D01*
X-7984Y46583D01*
X-8971Y46404D01*
X-9953Y46203D01*
X-10931Y45981D01*
X-11904Y45739D01*
X-12872Y45476D01*
X-13834Y45192D01*
X-14790Y44888D01*
X-15739Y44564D01*
X-16681Y44220D01*
X-17615Y43856D01*
X-18542Y43472D01*
X-19460Y43069D01*
X-20369Y42646D01*
X-21270Y42204D01*
X-22160Y41743D01*
X-23041Y41264D01*
X-23911Y40765D01*
X-24770Y40249D01*
X-25619Y39714D01*
X-26456Y39161D01*
X-27280Y38591D01*
X-28093Y38003D01*
X-28893Y37398D01*
X-29680Y36777D01*
X-30453Y36138D01*
X-31213Y35484D01*
X-31959Y34813D01*
X-32690Y34127D01*
X-33407Y33426D01*
X-34108Y32709D01*
X-34794Y31978D01*
X-35465Y31232D01*
X-36119Y30472D01*
X-36758Y29699D01*
X-37379Y28912D01*
X-37984Y28112D01*
X-38572Y27299D01*
X-39142Y26474D01*
X-39695Y25638D01*
X-40230Y24789D01*
X-40747Y23930D01*
X-41245Y23060D01*
X-41725Y22179D01*
X-42186Y21288D01*
X-42628Y20388D01*
X-43050Y19479D01*
X-43454Y18561D01*
X-43837Y17634D01*
X-44201Y16700D01*
X-44545Y15758D01*
X-44870Y14809D01*
X-45173Y13853D01*
X-45457Y12891D01*
X-45720Y11923D01*
X-45962Y10950D01*
X-46184Y9972D01*
X-46385Y8990D01*
X-46565Y8003D01*
X-46723Y7013D01*
X-46861Y6020D01*
X-46978Y5024D01*
X-47074Y4025D01*
X-47148Y3025D01*
X-47201Y2024D01*
X-47234Y1022D01*
X-47244Y19D01*
D34*
X47244D02*
X47233Y1022D01*
X47201Y2024D01*
X47148Y3025D01*
X47074Y4025D01*
X46978Y5024D01*
X46861Y6020D01*
X46723Y7013D01*
X46564Y8003D01*
X46385Y8990D01*
X46184Y9972D01*
X45962Y10950D01*
X45720Y11923D01*
X45457Y12891D01*
X45173Y13853D01*
X44869Y14809D01*
X44545Y15758D01*
X44201Y16700D01*
X43837Y17634D01*
X43453Y18561D01*
X43050Y19479D01*
X42627Y20388D01*
X42185Y21288D01*
X41725Y22179D01*
X41245Y23060D01*
X40746Y23930D01*
X40230Y24789D01*
X39695Y25638D01*
X39142Y26474D01*
X38572Y27299D01*
X37984Y28112D01*
X37379Y28912D01*
X36757Y29699D01*
X36119Y30472D01*
X35465Y31232D01*
X34794Y31978D01*
X34108Y32709D01*
X33407Y33426D01*
X32690Y34127D01*
X31959Y34813D01*
X31213Y35484D01*
X30453Y36138D01*
X29680Y36777D01*
X28893Y37398D01*
X28093Y38003D01*
X27280Y38591D01*
X26456Y39161D01*
X25619Y39714D01*
X24770Y40249D01*
X23911Y40765D01*
X23041Y41264D01*
X22160Y41743D01*
X21269Y42204D01*
X20369Y42646D01*
X19460Y43069D01*
X18542Y43472D01*
X17615Y43856D01*
X16681Y44220D01*
X15739Y44564D01*
X14790Y44888D01*
X13834Y45192D01*
X12872Y45476D01*
X11904Y45739D01*
X10931Y45981D01*
X9953Y46203D01*
X8971Y46404D01*
X7984Y46583D01*
X6994Y46742D01*
X6001Y46880D01*
X5005Y46997D01*
X4007Y47093D01*
X3006Y47167D01*
X2005Y47220D01*
X1003Y47252D01*
X-0Y47263D01*
D35*
X-8186Y16155D02*
X-9063Y15679D01*
X-9913Y15156D01*
X-10733Y14587D01*
X-11520Y13974D01*
X-12272Y13318D01*
X-12987Y12622D01*
X-13663Y11887D01*
X-14297Y11117D01*
X-14887Y10312D01*
X-15433Y9477D01*
X-15931Y8612D01*
X-16382Y7722D01*
X-16782Y6808D01*
X-17131Y5873D01*
X-17429Y4920D01*
X-17674Y3953D01*
X-17864Y2973D01*
X-18001Y1985D01*
X-18083Y990D01*
X-18110Y-7D01*
X-18082Y-1005D01*
X-18000Y-1999D01*
X-17862Y-2988D01*
X-17670Y-3967D01*
X-17425Y-4934D01*
X-17127Y-5887D01*
X-16777Y-6821D01*
X-16375Y-7735D01*
X-15924Y-8625D01*
X-15425Y-9489D01*
X-14879Y-10324D01*
X-14288Y-11128D01*
X-13653Y-11898D01*
X-12977Y-12632D01*
X-12262Y-13328D01*
X-11509Y-13983D01*
X-10721Y-14596D01*
X-9901Y-15164D01*
X-9051Y-15686D01*
X-8173Y-16161D01*
X-7270Y-16587D01*
X-6346Y-16962D01*
X-5402Y-17286D01*
X-4442Y-17557D01*
X-3468Y-17775D01*
X-2483Y-17939D01*
X-1491Y-18049D01*
X-495Y-18103D01*
X503Y-18103D01*
X1499Y-18048D01*
X2491Y-17938D01*
X3475Y-17774D01*
X4449Y-17555D01*
X5409Y-17284D01*
X6353Y-16959D01*
X7278Y-16584D01*
X8180Y-16158D01*
X9058Y-15683D01*
X9908Y-15160D01*
X10728Y-14591D01*
X11515Y-13978D01*
X12268Y-13322D01*
X12983Y-12627D01*
X13658Y-11892D01*
X14293Y-11122D01*
X14884Y-10318D01*
X15429Y-9482D01*
X15928Y-8618D01*
X16379Y-7728D01*
X16780Y-6814D01*
X17129Y-5879D01*
X17427Y-4927D01*
X17672Y-3959D01*
X17863Y-2980D01*
X18000Y-1991D01*
X18083Y-997D01*
X18110Y1D01*
X18083Y998D01*
X18000Y1993D01*
X17863Y2981D01*
X17672Y3961D01*
X17427Y4928D01*
X17129Y5880D01*
X16779Y6815D01*
X16378Y7729D01*
X15928Y8619D01*
X15429Y9483D01*
X14883Y10319D01*
X14292Y11123D01*
X13658Y11893D01*
X12982Y12628D01*
X12267Y13323D01*
X11514Y13979D01*
X10727Y14592D01*
X9906Y15160D01*
X9056Y15683D01*
X8179Y16158D01*
X-8179Y16141D02*
X8179Y16142D01*
M02*
