G04 Layer_Color=65535*
%FSLAX25Y25*%
%MOIN*%
G70*
G01*
G75*
%ADD14C,0.01000*%
%ADD22C,0.00984*%
%ADD23C,0.00787*%
%ADD24C,0.00500*%
D14*
X-19400Y48700D02*
Y54698D01*
X-16401D01*
X-15401Y53698D01*
Y51699D01*
X-16401Y50699D01*
X-19400D01*
X-13402Y48700D02*
X-11403D01*
X-12402D01*
Y54698D01*
X-13402Y53698D01*
X-14101Y72598D02*
X-15101Y73598D01*
X-17100D01*
X-18100Y72598D01*
Y68600D01*
X-17100Y67600D01*
X-15101D01*
X-14101Y68600D01*
X-12102Y67600D02*
X-10103D01*
X-11102D01*
Y73598D01*
X-12102Y72598D01*
X64699Y15498D02*
X63699Y16498D01*
X61700D01*
X60700Y15498D01*
Y11500D01*
X61700Y10500D01*
X63699D01*
X64699Y11500D01*
X70697Y10500D02*
X66698D01*
X70697Y14499D01*
Y15498D01*
X69697Y16498D01*
X67698D01*
X66698Y15498D01*
X-18401Y-67802D02*
X-19401Y-66802D01*
X-21400D01*
X-22400Y-67802D01*
Y-71800D01*
X-21400Y-72800D01*
X-19401D01*
X-18401Y-71800D01*
X-16402Y-67802D02*
X-15402Y-66802D01*
X-13403D01*
X-12403Y-67802D01*
Y-68801D01*
X-13403Y-69801D01*
X-14403D01*
X-13403D01*
X-12403Y-70801D01*
Y-71800D01*
X-13403Y-72800D01*
X-15402D01*
X-16402Y-71800D01*
X-68607Y15117D02*
X-69607Y16117D01*
X-71606D01*
X-72606Y15117D01*
Y11119D01*
X-71606Y10119D01*
X-69607D01*
X-68607Y11119D01*
X-63609Y10119D02*
Y16117D01*
X-66608Y13118D01*
X-62609D01*
X-17700Y86098D02*
Y81100D01*
X-16700Y80100D01*
X-14701D01*
X-13701Y81100D01*
Y86098D01*
X-11702Y80100D02*
X-9703D01*
X-10702D01*
Y86098D01*
X-11702Y85098D01*
X77594Y16117D02*
Y11119D01*
X78594Y10119D01*
X80593D01*
X81593Y11119D01*
Y16117D01*
X87591Y10119D02*
X83592D01*
X87591Y14118D01*
Y15117D01*
X86591Y16117D01*
X84592D01*
X83592Y15117D01*
X-23000Y-80102D02*
Y-85100D01*
X-22000Y-86100D01*
X-20001D01*
X-19001Y-85100D01*
Y-80102D01*
X-17002Y-81102D02*
X-16002Y-80102D01*
X-14003D01*
X-13003Y-81102D01*
Y-82101D01*
X-14003Y-83101D01*
X-15003D01*
X-14003D01*
X-13003Y-84101D01*
Y-85100D01*
X-14003Y-86100D01*
X-16002D01*
X-17002Y-85100D01*
X-89000Y16098D02*
Y11100D01*
X-88000Y10100D01*
X-86001D01*
X-85001Y11100D01*
Y16098D01*
X-80003Y10100D02*
Y16098D01*
X-83002Y13099D01*
X-79003D01*
X-36400Y-37502D02*
Y-43500D01*
X-33401D01*
X-32401Y-42500D01*
Y-41501D01*
Y-40501D01*
X-33401Y-39501D01*
X-36400D01*
X-30402D02*
Y-42500D01*
X-29402Y-43500D01*
X-26403D01*
Y-44500D01*
X-27403Y-45499D01*
X-28403D01*
X-26403Y-43500D02*
Y-39501D01*
X-17406Y-43500D02*
X-15407D01*
X-14407Y-42500D01*
Y-40501D01*
X-15407Y-39501D01*
X-17406D01*
X-18406Y-40501D01*
Y-42500D01*
X-17406Y-43500D01*
X-12408Y-45499D02*
Y-39501D01*
X-9409D01*
X-8409Y-40501D01*
Y-42500D01*
X-9409Y-43500D01*
X-12408D01*
X-3411D02*
X-5410D01*
X-6410Y-42500D01*
Y-40501D01*
X-5410Y-39501D01*
X-3411D01*
X-2411Y-40501D01*
Y-41501D01*
X-6410D01*
X-412Y-43500D02*
Y-39501D01*
X2587D01*
X3587Y-40501D01*
Y-43500D01*
X5586D02*
X8585D01*
X9585Y-42500D01*
X8585Y-41501D01*
X6586D01*
X5586Y-40501D01*
X6586Y-39501D01*
X9585D01*
X12584Y-43500D02*
X14583D01*
X15583Y-42500D01*
Y-40501D01*
X14583Y-39501D01*
X12584D01*
X11585Y-40501D01*
Y-42500D01*
X12584Y-43500D01*
X17582D02*
X19582D01*
X18582D01*
Y-37502D01*
X17582D01*
X23581Y-39501D02*
X25580D01*
X26580Y-40501D01*
Y-43500D01*
X23581D01*
X22581Y-42500D01*
X23581Y-41501D01*
X26580D01*
X28579Y-39501D02*
Y-43500D01*
Y-41501D01*
X29579Y-40501D01*
X30578Y-39501D01*
X31578D01*
X34577Y-43500D02*
Y-42500D01*
X35577D01*
Y-43500D01*
X34577D01*
X39575D02*
X41575D01*
X40575D01*
Y-39501D01*
X39575D01*
X45573Y-43500D02*
X47573D01*
X48572Y-42500D01*
Y-40501D01*
X47573Y-39501D01*
X45573D01*
X44574Y-40501D01*
Y-42500D01*
X45573Y-43500D01*
X-33401Y-27002D02*
X-35400D01*
X-36400Y-28002D01*
Y-32000D01*
X-35400Y-33000D01*
X-33401D01*
X-32401Y-32000D01*
Y-28002D01*
X-33401Y-27002D01*
X-30402Y-34999D02*
Y-29001D01*
X-27403D01*
X-26403Y-30001D01*
Y-32000D01*
X-27403Y-33000D01*
X-30402D01*
X-21405D02*
X-23404D01*
X-24404Y-32000D01*
Y-30001D01*
X-23404Y-29001D01*
X-21405D01*
X-20405Y-30001D01*
Y-31001D01*
X-24404D01*
X-18406Y-33000D02*
Y-29001D01*
X-15407D01*
X-14407Y-30001D01*
Y-33000D01*
X-9409Y-27002D02*
X-11408D01*
X-12408Y-28002D01*
Y-32000D01*
X-11408Y-33000D01*
X-9409D01*
X-8409Y-32000D01*
Y-28002D01*
X-9409Y-27002D01*
X-6410Y-33000D02*
Y-29001D01*
X-3411D01*
X-2411Y-30001D01*
Y-33000D01*
X2587D02*
X588D01*
X-412Y-32000D01*
Y-30001D01*
X588Y-29001D01*
X2587D01*
X3587Y-30001D01*
Y-31001D01*
X-412D01*
X11585Y-33000D02*
X15583Y-29001D01*
X23581Y-27002D02*
Y-33000D01*
Y-30001D01*
X27579D01*
Y-27002D01*
Y-33000D01*
X30578Y-29001D02*
X32578D01*
X33577Y-30001D01*
Y-33000D01*
X30578D01*
X29579Y-32000D01*
X30578Y-31001D01*
X33577D01*
X35577Y-33000D02*
X37576D01*
X36576D01*
Y-27002D01*
X35577D01*
X40575Y-33000D02*
X42575D01*
X41575D01*
Y-27002D01*
X40575D01*
X45573Y-33000D02*
X48572D01*
X49572Y-32000D01*
X48572Y-31001D01*
X46573D01*
X45573Y-30001D01*
X46573Y-29001D01*
X49572D01*
X-36400Y-48002D02*
Y-52001D01*
X-34401Y-54000D01*
X-32401Y-52001D01*
Y-48002D01*
X-30402Y-54000D02*
X-28403D01*
X-29402D01*
Y-48002D01*
X-30402Y-49002D01*
X-25404Y-54000D02*
Y-53000D01*
X-24404D01*
Y-54000D01*
X-25404D01*
X-20405Y-49002D02*
X-19406Y-48002D01*
X-17406D01*
X-16407Y-49002D01*
Y-53000D01*
X-17406Y-54000D01*
X-19406D01*
X-20405Y-53000D01*
Y-49002D01*
D22*
X90307Y3365D02*
X89569Y3792D01*
Y2939D01*
X90307Y3365D01*
X3839Y-89815D02*
X3100Y-89389D01*
Y-90241D01*
X3839Y-89815D01*
X-2854Y89815D02*
X-3593Y90241D01*
Y89389D01*
X-2854Y89815D01*
X-89323Y-3328D02*
X-90061Y-2901D01*
Y-3754D01*
X-89323Y-3328D01*
D23*
X-8600Y46600D02*
X11400D01*
Y56600D01*
X-8600D02*
X11400D01*
X-8600Y46600D02*
Y56600D01*
X83713Y5924D02*
X87256D01*
Y2775D02*
Y5924D01*
X83713Y-5887D02*
X87256D01*
Y-2737D01*
X5906Y-87256D02*
Y-83713D01*
X2756Y-87256D02*
X5906D01*
X-5906D02*
Y-83713D01*
Y-87256D02*
X-2756D01*
X-5906Y83713D02*
Y87256D01*
X-2756D01*
X5906Y83713D02*
Y87256D01*
X2756D02*
X5906D01*
X-87256Y-5887D02*
X-83713D01*
X-87256D02*
Y-2737D01*
Y5924D02*
X-83713D01*
X-87256Y2775D02*
Y5924D01*
D24*
X-66400Y-7100D02*
Y6900D01*
X-73400Y6900D02*
X-73400Y-7100D01*
X-66400D01*
X-73400Y6900D02*
X-66400Y6900D01*
X-6800Y-66700D02*
X7200D01*
X-6800Y-73700D02*
X7200Y-73700D01*
Y-66700D01*
X-6800Y-73700D02*
X-6800Y-66700D01*
X-6900Y66800D02*
X7100D01*
X-6900Y73800D02*
X7100Y73800D01*
X-6900Y66800D02*
Y73800D01*
X7100Y66800D02*
X7100Y73800D01*
X66400Y-6500D02*
Y7500D01*
X73400D02*
X73400Y-6500D01*
X66400Y7500D02*
X73400D01*
X66400Y-6500D02*
X73400Y-6500D01*
M02*
